REM DIRINDEX 1\2\6,1\2\7,1\2\8,1\2\9,1\3\10,1\3\11,1\4\12,1\4\13,1\4\14,1\5\15,1\5\16,1\5\17
REM DIRNAME folder01,folder02,folder03,folder04,folder05,folder06,folder07,folder08,folder09,folder10,folder11,folder12,folder13,folder14,folder15,folder16,folder17
TITLE ""
FILE "1900_3_097 sec17_1618_1636.mp3" MP3
  TRACK 01 AUDIO
    TITLE "0:"
    INDEX 01 00:00:00
  TRACK 02 AUDIO
    TITLE "17:cjc020_9220"
    INDEX 01 00:00:13
  TRACK 03 AUDIO
    TITLE "0:"
    INDEX 01 00:01:13
  TRACK 04 AUDIO
    TITLE "16:cjc020_9221"
    INDEX 01 00:01:21
  TRACK 05 AUDIO
    TITLE "0:"
    INDEX 01 00:02:43
  TRACK 06 AUDIO
    TITLE "17:cjc020_9222"
    INDEX 01 00:03:27
  TRACK 07 AUDIO
    TITLE "0:"
    INDEX 01 00:04:25
  TRACK 08 AUDIO
    TITLE "16:cjc020_9223"
    INDEX 01 00:04:33
  TRACK 09 AUDIO
    TITLE "0:"
    INDEX 01 00:05:38
  TRACK 10 AUDIO
    TITLE "17:cjc020_9224"
    INDEX 01 00:06:24
  TRACK 11 AUDIO
    TITLE "0:"
    INDEX 01 00:07:45
  TRACK 12 AUDIO
    TITLE "16:cjc020_9225"
    INDEX 01 00:07:51
  TRACK 13 AUDIO
    TITLE "0:"
    INDEX 01 00:08:58
  TRACK 14 AUDIO
    TITLE "17:cjc020_9226"
    INDEX 01 00:09:44
  TRACK 15 AUDIO
    TITLE "0:"
    INDEX 01 00:10:68
  TRACK 16 AUDIO
    TITLE "16:cjc020_9227"
    INDEX 01 00:10:74
  TRACK 17 AUDIO
    TITLE "0:"
    INDEX 01 00:12:03
  TRACK 18 AUDIO
    TITLE "17:cjc020_9228"
    INDEX 01 00:12:63
  TRACK 19 AUDIO
    TITLE "0:"
    INDEX 01 00:15:40
  TRACK 20 AUDIO
    TITLE "16:cjc020_9229"
    INDEX 01 00:15:42
  TRACK 21 AUDIO
    TITLE "0:"
    INDEX 01 00:16:44
  TRACK 22 AUDIO
    TITLE "17:cjc020_9230"
    INDEX 01 00:17:35
  TRACK 23 AUDIO
    TITLE "0:"
    INDEX 01 00:18:62
  TRACK 24 AUDIO
    TITLE "16:cjc020_9231"
    INDEX 01 00:18:64
  TRACK 25 AUDIO
    TITLE "0:"
    INDEX 01 00:19:71
  TRACK 26 AUDIO
    TITLE "17:cjc020_9232"
    INDEX 01 00:20:59
  TRACK 27 AUDIO
    TITLE "0:"
    INDEX 01 00:22:07
  TRACK 28 AUDIO
    TITLE "16:cjc020_9233"
    INDEX 01 00:22:13
  TRACK 29 AUDIO
    TITLE "0:"
    INDEX 01 00:23:08
  TRACK 30 AUDIO
    TITLE "17:cjc020_9234"
    INDEX 01 00:23:69
  TRACK 31 AUDIO
    TITLE "0:"
    INDEX 01 00:25:33
  TRACK 32 AUDIO
    TITLE "16:cjc020_9235"
    INDEX 01 00:25:39
  TRACK 33 AUDIO
    TITLE "0:"
    INDEX 01 00:26:67
  TRACK 34 AUDIO
    TITLE "17:cjc020_9236"
    INDEX 01 00:27:53
  TRACK 35 AUDIO
    TITLE "0:"
    INDEX 01 00:28:60
  TRACK 36 AUDIO
    TITLE "16:cjc020_9237"
    INDEX 01 00:28:62
  TRACK 37 AUDIO
    TITLE "0:"
    INDEX 01 00:29:74
  TRACK 38 AUDIO
    TITLE "17:cjc020_9238"
    INDEX 01 00:30:65
  TRACK 39 AUDIO
    TITLE "0:"
    INDEX 01 00:31:63
  TRACK 40 AUDIO
    TITLE "16:cjc020_9239"
    INDEX 01 00:31:65
  TRACK 41 AUDIO
    TITLE "0:"
    INDEX 01 00:32:72
  TRACK 42 AUDIO
    TITLE "17:cjc020_9240"
    INDEX 01 00:33:54
  TRACK 43 AUDIO
    TITLE "0:"
    INDEX 01 00:35:49
  TRACK 44 AUDIO
    TITLE "16:cjc020_9241"
    INDEX 01 00:35:55
  TRACK 45 AUDIO
    TITLE "0:"
    INDEX 01 00:36:60
  TRACK 46 AUDIO
    TITLE "17:cjc020_9242"
    INDEX 01 00:37:44
  TRACK 47 AUDIO
    TITLE "0:"
    INDEX 01 00:38:51
  TRACK 48 AUDIO
    TITLE "16:cjc020_9243"
    INDEX 01 00:38:61
  TRACK 49 AUDIO
    TITLE "0:"
    INDEX 01 00:39:51
  TRACK 50 AUDIO
    TITLE "17:cjc020_9244"
    INDEX 01 00:40:36
  TRACK 51 AUDIO
    TITLE "0:"
    INDEX 01 00:42:47
  TRACK 52 AUDIO
    TITLE "16:cjc020_9245"
    INDEX 01 00:42:51
  TRACK 53 AUDIO
    TITLE "0:"
    INDEX 01 00:43:56
  TRACK 54 AUDIO
    TITLE "17:cjc020_9246"
    INDEX 01 00:44:42
  TRACK 55 AUDIO
    TITLE "0:"
    INDEX 01 00:46:09
  TRACK 56 AUDIO
    TITLE "16:cjc020_9247"
    INDEX 01 00:46:11
  TRACK 57 AUDIO
    TITLE "0:"
    INDEX 01 00:47:27
  TRACK 58 AUDIO
    TITLE "17:cjc020_9248"
    INDEX 01 00:48:12
  TRACK 59 AUDIO
    TITLE "0:"
    INDEX 01 00:49:41
  TRACK 60 AUDIO
    TITLE "16:cjc020_9249"
    INDEX 01 00:49:45
  TRACK 61 AUDIO
    TITLE "0:"
    INDEX 01 00:50:58
  TRACK 62 AUDIO
    TITLE "17:cjc020_9250"
    INDEX 01 00:51:40
  TRACK 63 AUDIO
    TITLE "0:"
    INDEX 01 00:54:25
  TRACK 64 AUDIO
    TITLE "16:cjc020_9251"
    INDEX 01 00:54:32
  TRACK 65 AUDIO
    TITLE "0:"
    INDEX 01 00:55:59
  TRACK 66 AUDIO
    TITLE "17:cjc020_9252"
    INDEX 01 00:56:43
  TRACK 67 AUDIO
    TITLE "0:"
    INDEX 01 00:57:74
  TRACK 68 AUDIO
    TITLE "16:cjc020_9253"
    INDEX 01 00:58:09
  TRACK 69 AUDIO
    TITLE "0:"
    INDEX 01 00:59:08
  TRACK 70 AUDIO
    TITLE "17:cjc020_9254"
    INDEX 01 00:59:65
  TRACK 71 AUDIO
    TITLE "0:"
    INDEX 01 01:00:60
  TRACK 72 AUDIO
    TITLE "16:cjc020_9255"
    INDEX 01 01:00:64
  TRACK 73 AUDIO
    TITLE "0:"
    INDEX 01 01:02:18
  TRACK 74 AUDIO
    TITLE "17:cjc020_9256"
    INDEX 01 01:03:00
  TRACK 75 AUDIO
    TITLE "0:"
    INDEX 01 01:04:29
  TRACK 76 AUDIO
    TITLE "16:cjc020_9257"
    INDEX 01 01:04:33
  TRACK 77 AUDIO
    TITLE "0:"
    INDEX 01 01:05:50
